<svg id="Group_371" data-name="Group 371" xmlns="http://www.w3.org/2000/svg" width="39.522" height="29.917" viewBox="0 0 39.522 29.917">
  <path id="Path_408" data-name="Path 408" d="M1347.607,221.943V230.3l-8.6-8.6Z" transform="translate(-1314.35 -200.383)" fill="#fff"/>
  <path id="Rectangle_359" data-name="Rectangle 359" d="M8.11,0H17.7a8.11,8.11,0,0,1,8.11,8.11v0A8.108,8.108,0,0,1,17.7,16.22H8.111A8.111,8.111,0,0,1,0,8.11v0A8.11,8.11,0,0,1,8.11,0Z" transform="translate(13.716 7.306)" fill="#fff"/>
  <path id="Path_409" data-name="Path 409" d="M1304.936,200.136c-.057-1.01-.036-2.555-.036-3.607V194.96a7.849,7.849,0,0,1,7.85-7.855h6.159a7.371,7.371,0,0,0-6.841-4.631h-11.06a7.371,7.371,0,0,0-7.372,7.372v1.475a7.37,7.37,0,0,0,6.266,7.282v6.479Z" transform="translate(-1293.636 -182.474)" fill="#fff"/>
</svg>
