<?xml version="1.0" encoding="utf-8"?>
<!-- Generator: Adobe Illustrator 24.2.3, SVG Export Plug-In . SVG Version: 6.00 Build 0)  -->
<svg version="1.1" id="Layer_1" xmlns="http://www.w3.org/2000/svg" xmlns:xlink="http://www.w3.org/1999/xlink" x="0px" y="0px"
	 viewBox="0 0 200 200" style="enable-background:new 0 0 200 200;" xml:space="preserve">
<style type="text/css">
	.st0{fill:#21B4BF;}
</style>
<g>
	<path class="st0" d="M143.5,49.1c-9.9,0-19,1.9-27,5.7c-8.1,3.8-14,9-17.7,15.8h32.8v21.7H48.4C49.1,81,52,70.4,56.9,60.4
		c5-9.9,11.6-18.6,20-26C85.3,27,95.1,21.2,106.4,17c11.3-4.2,23.7-6.3,37.1-6.3V49.1z M143.5,189.3c-13,0-25.1-2.1-36.4-6.2
		c-11.3-4.1-21.2-9.8-29.7-17c-8.5-7.2-15.3-15.6-20.5-25.3c-5.1-9.7-8-20.2-8.6-31.5h83.2v21.5H99.2c1.5,2.9,3.7,5.5,6.7,7.9
		c2.9,2.4,6.4,4.5,10.3,6.3c3.9,1.8,8.2,3.2,12.9,4.3c4.7,1.1,9.5,1.6,14.5,1.6V189.3z"/>
</g>
</svg>
