<svg xmlns="http://www.w3.org/2000/svg" width="50.428" height="50.428" viewBox="0 0 50.428 50.428"><defs><style>.a{fill:#21b4bf;}</style></defs><path class="a" d="M351.934,17.411,352.63,0,335.219.7Z" transform="translate(-302.203)"/><path class="a" d="M12.607,239.263l8.918-8.919,2.09,2.09L14.7,241.352A7.387,7.387,0,0,0,25.143,251.8a4.432,4.432,0,1,0-6.268-6.268l-1.045,1.045,2.089,2.089,1.045-1.044a1.477,1.477,0,0,1,2.089,2.089,4.432,4.432,0,1,1-6.268-6.268l8.918-8.918,2.089,2.089,5.622-5.622-15.67-5.224-.4.4,2.089,2.089-8.918,8.918a4.432,4.432,0,1,1-6.268-6.268,1.477,1.477,0,0,1,2.089,2.089L5.294,234.04l2.089,2.089,1.045-1.045a4.432,4.432,0,0,0-6.268-6.268,7.387,7.387,0,1,0,10.447,10.447Z" transform="translate(0 -203.531)"/><path class="a" d="M6.985,426.43,4.9,428.519,2.806,426.43.717,428.519l2.089,2.089L.717,432.7l2.089,2.089L4.9,432.7l2.089,2.089L9.074,432.7l-2.089-2.089,2.089-2.089Z" transform="translate(-0.646 -384.43)"/><path class="a" d="M93.357,132.1l2.09-2.089,2.089,2.089,2.089-2.089-2.089-2.089,2.089-2.089-2.089-2.09-2.089,2.09-2.09-2.09-2.089,2.09,2.089,2.089-2.089,2.089Z" transform="translate(-82.279 -111.558)"/><path class="a" d="M309.669,335.88l-2.089,2.089-2.089-2.089-2.089,2.089,2.089,2.089-2.089,2.09,2.089,2.089,2.089-2.089,2.089,2.089,2.09-2.089-2.09-2.09,2.09-2.089Z" transform="translate(-273.519 -302.799)"/><path class="a" d="M263.828,146.135l-15.67-5.223-1.842,1.842,15.669,5.224Z" transform="translate(-222.056 -127.033)"/><path class="a" d="M304.81,70.555,294.363,60.108l-5.622,5.622,15.67,5.224Z" transform="translate(-260.303 -54.188)"/><path class="a" d="M221.4,188.562l-15.67-5.224-1.842,1.842,15.67,5.224Z" transform="translate(-183.809 -165.281)"/></svg>