<?xml version="1.0" encoding="utf-8"?>
<!-- Generator: Adobe Illustrator 24.2.3, SVG Export Plug-In . SVG Version: 6.00 Build 0)  -->
<svg version="1.1" id="Layer_1" xmlns="http://www.w3.org/2000/svg" xmlns:xlink="http://www.w3.org/1999/xlink" x="0px" y="0px"
	 viewBox="0 0 200 200" style="enable-background:new 0 0 200 200;" xml:space="preserve">
<style type="text/css">
	.st0{fill:#21B4BF;}
</style>
<path id="Path_586" class="st0" d="M192.5,46c-2.4-1.6-5.3-2.4-8.2-2.4h-79.8c-3.2-0.2-6.1-1.9-7.6-4.6l-2.2-4.6
	c-1.5-2.7-4.4-4.4-7.6-4.5H45c-3.3,0.2-6.3,1.8-8.2,4.3L33.8,39c-1.7,2.5-3.8,4.7-6.4,6.4c-2.3,1.8-3.6,4.4-3.6,7.1v31.7H9.4
	c-2.3-0.1-4.3,1.5-4.4,3.7c0,0.4,0,0.8,0.1,1.2L23,165.3c0.8,2.8,3.4,4.8,6.5,4.9h161.6v0c0.1,0,0.2,0,0.2,0c2.2,0,3.9-2.2,3.9-5
	V53.4C195.4,50.7,194.4,48.1,192.5,46z M47.4,156.6L44.6,141h40.5l2.7,15.6H47.4z M185.1,152.9L168,89.1c-0.9-2.8-3.6-4.7-6.7-4.8
	H34.1V62.8c0-2.7,2.4-5,5.4-5h140.2c3,0,5.4,2.2,5.4,5L185.1,152.9z"/>
</svg>
