<?xml version="1.0" encoding="utf-8"?>
<!-- Generator: Adobe Illustrator 24.2.3, SVG Export Plug-In . SVG Version: 6.00 Build 0)  -->
<svg version="1.1" id="Layer_1" xmlns="http://www.w3.org/2000/svg" xmlns:xlink="http://www.w3.org/1999/xlink" x="0px" y="0px"
	 viewBox="0 0 200 200" style="enable-background:new 0 0 200 200;" xml:space="preserve">
<style type="text/css">
	.st0{fill:#21B4BF;}
</style>
<path id="Path_750" class="st0" d="M73.1,54.5L73.1,54.5c2.4-3.7,6.7-10.5,6.7-13c0-3.5,20.4-3.2,20.4-3.2l-6.7,9.4
	c0,0,16.9-4.4,22.1-6.2c3.1-1,7.7,3.2,10.8,6.8c3.3,15.7-2.3,32-14.6,42.4c-0.8,0.7-1.7,1.4-2.6,2.1l-5.2,3.8
	c-2.3,1.7-5.3,1.7-7.6,0l-5.2-3.8c-0.7-0.5-1.4-1.1-2.1-1.6C78.2,82.2,72.3,68.6,73.1,54.5L73.1,54.5z M111.9,114.5l-3.5,11
	c-0.1,0.4-0.4,0.7-0.7,0.8l3.1,39.6c0,0.3,0,0.6-6.9,21c-0.7,2-3.6,2-11-20.1c-0.1-0.3-0.1-0.6,3-40.5c-0.3-0.2-0.6-0.5-4.2-11.9
	c-0.3-0.9,0.4-1.8,18.8-1.8c0.7,0,1.4,0.6,1.4,1.4C112,114.3,112,114.4,111.9,114.5z M115.7,135c0-0.9,0.8-1.7,1.7-1.7h22
	c0.9,0,1.7,0.8,1.7,1.7v4.4c0,0.9-1.7,1.7-1.7,1.7h-22c-0.9,0-1.7-0.8-1.7-1.7V135z M50.2,117.2c-2.4,0.6-3.9,3-3.4,5.4l14.8,68.8
	h45.8v-0.1h32.3l14.2-66.1c0.5-2.4-1-4.8-3.4-5.4l-36.5-8.8V95.7c7.6-6,13.3-14.1,16.2-23.4c0.4-1.3,0.8-2.6,1.1-4l0,0
	c4.7-0.6,8.2-4.6,8.2-9.2v-5.3c0-2.2-1.8-4-4-4h-3.1c2-3,4.5-7.7,4.3-11.6c-0.4-6.3-2.7-18.1-20.9-26.4S84.2,22.8,84.2,22.8
	s-10.6-10.9-15.9,4.9s0,22.2,0,22.2h-2.2c-2.2,0-4,1.8-4,4v5.3c0,4.2,2.9,7.9,7,9l0,0c0.3,1.4,0.7,2.8,1.2,4.2
	c3.2,9.9,9.5,18.5,17.9,24.6l0.1,0.1V110L50.2,117.2L50.2,117.2z"/>
</svg>
