<?xml version="1.0" encoding="utf-8"?>
<!-- Generator: Adobe Illustrator 24.2.3, SVG Export Plug-In . SVG Version: 6.00 Build 0)  -->
<svg version="1.1" id="Layer_1" xmlns="http://www.w3.org/2000/svg" xmlns:xlink="http://www.w3.org/1999/xlink" x="0px" y="0px"
	 viewBox="0 0 200 200" style="enable-background:new 0 0 200 200;" xml:space="preserve">
<style type="text/css">
	.st0{fill:#21B4BF;}
</style>
<g id="Group_505" transform="translate(-879.159 -461.533)">
	<g id="Group_306" transform="translate(916.916 480.839)">
		<g id="Group_294" transform="translate(5.192 4.067)">
			<g id="Group_293">
				<path id="Path_600" class="st0" d="M70.3,101.9c-0.9,0.9-2.3,0.9-3.2,0l-3.7-3.7c-0.9-0.9-0.9-2.3,0-3.2c0,0,0,0,0,0l48.8-48.8
					c0.9-0.9,2.3-0.9,3.2,0c0,0,0,0,0,0l3.7,3.7c0.9,0.9,0.9,2.3,0,3.2L70.3,101.9z"/>
			</g>
		</g>
		<g id="Group_296" transform="translate(9.161 8.038)">
			<g id="Group_295" transform="translate(0 0)">
				<path id="Rectangle_410" class="st0" d="M68.4,100.8L118,51.2c0.7-0.7,1.7-0.7,2.4,0l4.5,4.5c0.7,0.7,0.7,1.7,0,2.4l-49.6,49.6
					c-0.7,0.7-1.7,0.6-2.4,0c0,0,0,0,0,0l-4.5-4.5C67.7,102.5,67.7,101.5,68.4,100.8z"/>
			</g>
		</g>
		<g id="Group_298" transform="translate(14.003 12.879)">
			<g id="Group_297">
				<path id="Path_601" class="st0" d="M80.2,111.8c-0.9,0.9-2.3,0.9-3.2,0c0,0,0,0,0,0l-3.7-3.7c-0.9-0.9-0.9-2.3,0-3.2l48.8-48.8
					c0.9-0.9,2.3-0.9,3.2,0c0,0,0,0,0,0l3.7,3.7c0.9,0.9,0.9,2.3,0,3.2c0,0,0,0,0,0L80.2,111.8z"/>
			</g>
		</g>
		<g id="Group_303" transform="translate(0 29.668)">
			<g id="Group_300" transform="translate(1.558)">
				<g id="Group_299">
					<path id="Path_602" class="st0" d="M71.3,103.1l15.8-3.6L62.1,74.4l-3.4,16L71.3,103.1z"/>
				</g>
			</g>
			<g id="Group_302" transform="translate(0 10.013)">
				<g id="Group_301">
					<path id="Path_603" class="st0" d="M59.2,85.6l-2.3,11l11-2.5L59.2,85.6z"/>
				</g>
			</g>
		</g>
		<g id="Group_305" transform="translate(30.374)">
			<g id="Group_304">
				<path id="Path_604" class="st0" d="M116.6,71.8l2.2-2.2c4.1-4.1,4.1-10.7,0-14.7c0,0,0,0,0,0L108,44.1c-4.1-4.1-10.7-4.1-14.7,0
					l-2.2,2.2L116.6,71.8z"/>
			</g>
		</g>
	</g>
	<path id="Path_605" class="st0" d="M1007.7,615.2l-39.7,8.5l-1.4,0.3l4.2-20.2l-0.1-0.1l4.2-19.9l46-46v-26.3H915.6
		c-5.6,0-10.2-4.6-10.2-10.2s4.6-10.2,10.2-10.2l0,0h105.5v-10.2H913.3c-10.9,0-19.7,8.8-19.7,19.7c0,0,0,0,0,0v122.7
		c0,10.9,8.8,19.7,19.7,19.7h0h107.8v-41.1L1007.7,615.2z"/>
</g>
</svg>
