<svg xmlns="http://www.w3.org/2000/svg" width="51.645" height="73.45" viewBox="0 0 51.645 73.45"><defs><style>.a{fill:#7d1a7b;}</style></defs><g transform="translate(-76)"><path class="a" d="M101.822,0A25.843,25.843,0,0,0,76,25.822a25.464,25.464,0,0,0,3.874,13.557l20.2,33.055a2.039,2.039,0,0,0,1.464.99,2.142,2.142,0,0,0,2.195-1.033l20.256-33.356a25.467,25.467,0,0,0,3.658-13.212A25.843,25.843,0,0,0,101.822,0Zm0,38.734a12.911,12.911,0,1,1,12.911-12.911A12.894,12.894,0,0,1,101.822,38.734Z"/><path class="a" d="M256,0V12.911a12.911,12.911,0,1,1,0,25.822V73.449a2.131,2.131,0,0,0,1.908-1.058l20.256-33.356a25.467,25.467,0,0,0,3.658-13.212A25.843,25.843,0,0,0,256,0Z" transform="translate(-154.178)"/></g></svg>