<svg id="Capa_1" enable-background="new 0 0 512 512" height="512" viewBox="0 0 512 512" width="512" xmlns="http://www.w3.org/2000/svg">
    <g>
        <path d="m30 151h91c16.538 0 30-13.462 30-30v-91c0-16.538-13.462-30-30-30h-91c-16.538 0-30 13.462-30 30v91c0 16.538 13.462 30 30 30z"/>
        <path d="m211 151h90c16.538 0 30-13.462 30-30v-91c0-16.538-13.462-30-30-30h-90c-16.538 0-30 13.462-30 30v91c0 16.538 13.462 30 30 30z"/>
        <path d="m482 0h-91c-16.538 0-30 13.462-30 30v91c0 16.538 13.462 30 30 30h91c16.538 0 30-13.462 30-30v-91c0-16.538-13.462-30-30-30z"/>
        <path d="m30 331h91c16.538 0 30-13.462 30-30v-90c0-16.538-13.462-30-30-30h-91c-16.538 0-30 13.462-30 30v90c0 16.538 13.462 30 30 30z"/>
        <path d="m181 301c0 16.538 13.462 30 30 30h90c16.538 0 30-13.462 30-30v-90c0-16.538-13.462-30-30-30h-90c-16.538 0-30 13.462-30 30z"/>
        <path d="m482 181h-91c-16.538 0-30 13.462-30 30v90c0 16.538 13.462 30 30 30h91c16.538 0 30-13.462 30-30v-90c0-16.538-13.462-30-30-30z"/>
        <path d="m30 512h91c16.538 0 30-13.462 30-30v-91c0-16.538-13.462-30-30-30h-91c-16.538 0-30 13.462-30 30v91c0 16.538 13.462 30 30 30z"/>
        <path d="m181 482c0 16.538 13.462 30 30 30h90c16.538 0 30-13.462 30-30v-91c0-16.538-13.462-30-30-30h-90c-16.538 0-30 13.462-30 30z"/>
        <path d="m482 361h-91c-16.538 0-30 13.462-30 30v91c0 16.538 13.462 30 30 30h91c16.538 0 30-13.462 30-30v-91c0-16.538-13.462-30-30-30z"/>
    </g>
</svg>