<svg xmlns="http://www.w3.org/2000/svg" width="30.479" height="49.285" viewBox="0 0 30.479 49.285"><defs><style>.a{fill:#21b4bf;}</style></defs><g transform="translate(-97.684)"><path class="a" d="M190.856,3.352a.458.458,0,0,1,.457-.457h6.4a.458.458,0,0,1,.457.457V4.576a16.915,16.915,0,0,1,2.895.889V3.352A3.356,3.356,0,0,0,197.708,0h-6.4a3.356,3.356,0,0,0-3.352,3.352V5.464a16.914,16.914,0,0,1,2.895-.889V3.352Z" transform="translate(-81.587)"/><path class="a" d="M126.219,331.682a16.587,16.587,0,0,1-2.467,1.715l1.6,4.572h-7.032v-2.785a13,13,0,0,1-2.895,0v2.785h-7.032l1.6-4.572a16.6,16.6,0,0,1-2.467-1.715l-5.387,15.432a1.447,1.447,0,1,0,2.733.954l2.515-7.2h8.043v6.727a1.447,1.447,0,1,0,2.895,0v-6.727h8.043l2.515,7.2a1.447,1.447,0,0,0,2.733-.954Z" transform="translate(-3.945 -299.754)"/><path class="a" d="M141.372,248.457c5.592,0,10.36-4.589,12.209-9.627H129.163C131.013,243.868,135.781,248.457,141.372,248.457Z" transform="translate(-28.449 -215.84)"/><path class="a" d="M99.131,86.643h27.584a1.447,1.447,0,1,0,0-2.895h-.862c-.8-5.694-6.286-10.1-12.93-10.1s-12.126,4.406-12.93,10.1h-.862a1.447,1.447,0,0,0,0,2.895ZM109.138,78.9h7.571a1.447,1.447,0,1,1,0,2.895h-7.571a1.447,1.447,0,1,1,0-2.895Z" transform="translate(0 -66.559)"/></g></svg>