<svg xmlns="http://www.w3.org/2000/svg" width="47" height="41.933" viewBox="0 0 47 41.933"><defs><style>.a{fill:#21b4bf;}</style></defs><g transform="translate(0 -27.598)"><g transform="translate(11.154 56.504)"><path class="a" d="M125.9,342.49l-4.4,4.4h8.03v-4.4Z" transform="translate(-121.506 -342.49)"/></g><g transform="translate(3.513 46.552)"><path class="a" d="M78.163,236.483a6.345,6.345,0,0,1-4.977-2.411,6.343,6.343,0,0,1-9.954,0,6.343,6.343,0,0,1-9.954,0,6.343,6.343,0,0,1-9.954,0,6.345,6.345,0,0,1-4.977,2.411l-.08,0v4.789H56.694v9.9H38.268v5.877H61.775V241.27h9.611v15.782h6.856V236.481Z" transform="translate(-38.268 -234.072)"/></g><g transform="translate(3.513 56.504)"><path class="a" d="M38.268,342.49v4.4h3.745l4.4-4.4Z" transform="translate(-38.268 -342.49)"/></g><g transform="translate(3.513 27.598)"><rect class="a" width="39.974" height="3.061"/></g><g transform="translate(29.775 56.504)"><rect class="a" width="4.101" height="13.027"/></g><g transform="translate(0.269 33.414)"><path class="a" d="M46.24,90.951H6.082L2.93,97.188H49.392Z" transform="translate(-2.93 -90.951)"/></g><g transform="translate(0 42.833)"><path class="a" d="M0,193.566a3.6,3.6,0,0,0,7.185,0Z" transform="translate(0 -193.566)"/></g><g transform="translate(9.954 42.833)"><path class="a" d="M108.432,193.566a3.6,3.6,0,0,0,7.185,0Z" transform="translate(-108.432 -193.566)"/></g><g transform="translate(19.907 42.833)"><path class="a" d="M216.864,193.566a3.6,3.6,0,0,0,7.185,0Z" transform="translate(-216.864 -193.566)"/></g><g transform="translate(29.861 42.833)"><path class="a" d="M325.3,193.566a3.6,3.6,0,0,0,7.185,0Z" transform="translate(-325.297 -193.566)"/></g><g transform="translate(39.815 42.833)"><path class="a" d="M433.729,193.566a3.6,3.6,0,0,0,7.185,0Z" transform="translate(-433.729 -193.566)"/></g></g></svg>