<svg xmlns="http://www.w3.org/2000/svg" width="46.942" height="43" viewBox="0 0 46.942 43"><defs><style>.a{fill:#21b4bf;}</style></defs><path class="a" d="M45.567,73.739a1.61,1.61,0,0,0-1.375,1.769V87.089H39.036V76.508a1.61,1.61,0,0,0-1.375-1.769,1.61,1.61,0,0,0-1.375,1.769V87.089H10.656V75.508a1.61,1.61,0,0,0-1.375-1.769,1.61,1.61,0,0,0-1.375,1.769V85.868L2.751,82.224V76.508a1.61,1.61,0,0,0-1.375-1.769A1.61,1.61,0,0,0,0,76.508V114.97a1.61,1.61,0,0,0,1.375,1.769,1.61,1.61,0,0,0,1.375-1.769V102.65l5.155,3.644v7.676a1.61,1.61,0,0,0,1.375,1.769,1.61,1.61,0,0,0,1.375-1.769v-7.235h25.63v8.235a1.61,1.61,0,0,0,1.375,1.769,1.61,1.61,0,0,0,1.375-1.769v-8.235h5.155v7.235a1.419,1.419,0,1,0,2.751,0V75.508a1.61,1.61,0,0,0-1.375-1.769ZM2.751,86.262l5.155,3.644v12.35L2.751,98.612Zm7.906,4.367h25.63V103.2H10.656Zm28.38,0h5.155V103.2H39.036Z" transform="translate(0 -73.739)"/></svg>