<svg xmlns="http://www.w3.org/2000/svg" width="61.969" height="61.969" viewBox="0 0 61.969 61.969"><defs><style>.a{fill:#21b4bf;}</style></defs><path class="a" d="M304,240h19.919v8.853H304Zm0,0" transform="translate(-261.95 -206.802)"/><path class="a" d="M125.37,368H85.533a5.533,5.533,0,1,0,0,11.066H125.37a5.533,5.533,0,0,0,0-11.066Zm-33.2,9.959a4.426,4.426,0,1,1,4.426-4.426A4.427,4.427,0,0,1,92.172,377.959Zm13.279,0a4.426,4.426,0,1,1,4.426-4.426A4.427,4.427,0,0,1,105.451,377.959Zm13.279,0a4.426,4.426,0,1,1,4.426-4.426A4.427,4.427,0,0,1,118.73,377.959Zm0,0" transform="translate(-68.934 -317.097)"/><path class="a" d="M156.426,394.213A2.213,2.213,0,1,1,154.213,392,2.213,2.213,0,0,1,156.426,394.213Zm0,0" transform="translate(-130.975 -337.777)"/><path class="a" d="M348.426,394.213A2.213,2.213,0,1,1,346.213,392,2.213,2.213,0,0,1,348.426,394.213Zm0,0" transform="translate(-296.417 -337.777)"/><path class="a" d="M128,320h37.624v4.426H128Zm0,0" transform="translate(-110.295 -275.737)"/><path class="a" d="M252.426,394.213A2.213,2.213,0,1,1,250.213,392,2.213,2.213,0,0,1,252.426,394.213Zm0,0" transform="translate(-213.696 -337.777)"/><path class="a" d="M0,0V28.771H1.264L4.44,8.109a1.106,1.106,0,0,1,1.881-.614L21.866,23.046l3.127-3.127L5.075,0ZM0,0"/><path class="a" d="M0,228.941l8.16,5.44L10.755,224H0Zm0,0" transform="translate(0 -193.016)"/><path class="a" d="M151.422,131l-4.692,4.692-2.73,2.73v13.927h19.919V128h-9.5Zm4.371-.782H160.6a1.107,1.107,0,0,1,1.107,1.107v11.066a1.107,1.107,0,0,1-1.107,1.107H147.32a1.107,1.107,0,0,1-1.107-1.107v-2.592a1.106,1.106,0,0,1,.324-.782l8.473-8.473A1.106,1.106,0,0,1,155.793,130.213Zm0,0" transform="translate(-124.081 -110.295)"/><path class="a" d="M187.066,160h-3.241L176,167.824v1.028h11.066Zm0,0" transform="translate(-151.655 -137.868)"/></svg>