<svg xmlns="http://www.w3.org/2000/svg" width="38.343" height="38.343" viewBox="0 0 38.343 38.343"><defs><style>.a{fill:#21b4bf;}</style></defs><g transform="translate(6.815 6.815)"><path class="a" d="M91,91v6.74h2.247V96.617a3.37,3.37,0,0,1,6.74,0V97.74h2.247V96.617a3.37,3.37,0,0,1,6.74,0V97.74h2.247V91Z" transform="translate(-91 -91)"/></g><g transform="translate(20.295 11.308)"><path class="a" d="M272.123,151A1.124,1.124,0,0,0,271,152.123v1.123h2.247v-1.123A1.124,1.124,0,0,0,272.123,151Z" transform="translate(-271 -151)"/></g><g transform="translate(20.295 20.295)"><path class="a" d="M272.123,271A1.124,1.124,0,0,0,271,272.123v1.123h2.247v-1.123A1.124,1.124,0,0,0,272.123,271Z" transform="translate(-271 -271)"/></g><g transform="translate(9.061 29.281)"><path class="a" d="M133.357,391H122.123A1.124,1.124,0,0,0,121,392.123v1.123h13.48v-1.123A1.124,1.124,0,0,0,133.357,391Z" transform="translate(-121 -391)"/></g><g transform="translate(11.308 20.295)"><path class="a" d="M152.123,271A1.124,1.124,0,0,0,151,272.123v1.123h2.247v-1.123A1.124,1.124,0,0,0,152.123,271Z" transform="translate(-151 -271)"/></g><g transform="translate(6.815 15.801)"><path class="a" d="M91,211v6.74h2.247v-1.123a3.37,3.37,0,0,1,6.74,0v1.123h2.247v-1.123a3.37,3.37,0,0,1,6.74,0v1.123h2.247V211Z" transform="translate(-91 -211)"/></g><g transform="translate(11.308 11.308)"><path class="a" d="M152.123,151A1.124,1.124,0,0,0,151,152.123v1.123h2.247v-1.123A1.124,1.124,0,0,0,152.123,151Z" transform="translate(-151 -151)"/></g><path class="a" d="M5.692,4.568H27.035V0H3.445A3.5,3.5,0,0,0,0,3.445V34.973a3.439,3.439,0,0,0,3.445,3.37h23.59V24.788H5.692a1.123,1.123,0,0,1-1.123-1.123V5.692A1.123,1.123,0,0,1,5.692,4.568ZM6.815,30.4a3.374,3.374,0,0,1,3.37-3.37H21.418a3.374,3.374,0,0,1,3.37,3.37v2.247a1.123,1.123,0,0,1-1.123,1.123H7.938a1.123,1.123,0,0,1-1.123-1.123Z"/><g transform="translate(29.281)"><path class="a" d="M396.617,0H391V38.343h5.617a3.439,3.439,0,0,0,3.445-3.37V3.445A3.5,3.5,0,0,0,396.617,0ZM394.37,22.541a1.123,1.123,0,1,1,1.123-1.123A1.123,1.123,0,0,1,394.37,22.541Zm0-4.493a1.123,1.123,0,1,1,1.123-1.123A1.123,1.123,0,0,1,394.37,18.048Zm0-4.493a1.123,1.123,0,1,1,1.123-1.123A1.123,1.123,0,0,1,394.37,13.555Zm0-4.493a1.123,1.123,0,1,1,1.123-1.123A1.123,1.123,0,0,1,394.37,9.061Z" transform="translate(-391)"/></g></svg>